<svg xmlns="http://www.w3.org/2000/svg" viewBox="0 0 88.19 88.49"><defs><style>.cls-1{fill:#cb8f2b;}</style></defs><g id="Layer_2" data-name="Layer 2"><g id="Isolation_Mode" data-name="Isolation Mode"><path class="cls-1" d="M87.16,28.71l-1.91-1.27L49,3.24,44.54.3,44.09,0l-.44.3L39.24,3.24,2.94,27.44,1,28.71,0,29.4V88.49H2.94V60.07H14.21V88.49h2.94V60.07H28.42V88.49h2.93V57.13H17.15V45.86H71V57.13H56.83V88.49h2.94V60.07H71V88.49H74V60.07H85.25V88.49h2.94V29.4ZM74,57.13V42.92H14.21V57.13H2.94V31l3.38-2.26L44.09,3.53,81.86,28.71,85.25,31V57.13Z"/></g></g></svg>